# Blender v3.0.0 OBJ File: 'squidRight.blend'
# www.blender.org
mtllib bullet.mtl
o çƒä½“
v 0.675564 4.688399 -2.254490
v 0.675564 4.666518 -2.287236
v 0.675564 4.595144 -2.273039
v 0.682663 4.688399 -2.251549
v 0.705818 4.666518 -2.274705
v 0.711251 4.627891 -2.280138
v 0.695779 4.595144 -2.264666
v 0.685603 4.688399 -2.244451
v 0.718350 4.666518 -2.244451
v 0.726033 4.627891 -2.244451
v 0.704153 4.595144 -2.244451
v 0.682663 4.688399 -2.237352
v 0.705818 4.666518 -2.214197
v 0.711251 4.627891 -2.208764
v 0.695779 4.595144 -2.224236
v 0.675564 4.688399 -2.234412
v 0.675564 4.666518 -2.201665
v 0.675564 4.627891 -2.193982
v 0.675564 4.595144 -2.215863
v 0.668466 4.688399 -2.237352
v 0.645311 4.666518 -2.214197
v 0.639877 4.627891 -2.208764
v 0.655349 4.595144 -2.224236
v 0.675564 4.689388 -2.244451
v 0.665525 4.688399 -2.244451
v 0.632779 4.666518 -2.244451
v 0.625096 4.627891 -2.244451
v 0.646976 4.595144 -2.244451
v 0.668466 4.688399 -2.251549
v 0.645311 4.666518 -2.274705
v 0.639877 4.627891 -2.280138
v 0.655349 4.595144 -2.264666
v 0.675564 4.627891 -2.294920
v 0.675564 4.586472 -2.244451
vt 0.625000 0.437500
vt 0.750000 0.437500
vt 0.750000 0.687500
vt 0.625000 0.687500
vt 0.250000 0.687500
vt 0.375000 0.687500
vt 0.375000 0.937500
vt 0.250000 0.937500
vt 0.750000 0.937500
vt 0.625000 0.937500
vt 0.375000 0.187500
vt 0.500000 0.187500
vt 0.500000 0.437500
vt 0.375000 0.437500
vt 0.500000 0.687500
vt 0.500000 0.937500
vt 0.515625 1.000000
vt 0.625000 0.187500
vt 0.750000 0.187500
vt 0.875000 0.687500
vt 0.875000 0.437500
vt 0.875000 0.937500
vt 0.671875 0.000000
vt 1.000000 0.687500
vt 0.125000 0.687500
vt 0.125000 0.937500
vt 1.000000 0.937500
vt 0.546875 0.000000
vt 0.390625 1.000000
vt 0.000000 0.687500
vt 0.250000 0.437500
vt 0.250000 0.187500
vt 0.421875 0.000000
vt 0.265625 1.000000
vt 0.125000 0.437500
vt 0.125000 0.187500
vt 0.296875 0.000000
vt 0.140625 1.000000
vt 1.000000 0.187500
vt 1.000000 0.437500
vt 0.171875 0.000000
vt 0.015625 1.000000
vt 0.000000 0.437500
vt 0.875000 0.187500
vt 0.000000 0.187500
vt 0.046875 0.000000
vt 0.890625 1.000000
vt 0.921875 0.000000
vt 0.765625 1.000000
vt 0.640625 1.000000
vt 0.796875 0.000000
vn 0.3764 0.1807 -0.9087
vn 0.2243 0.8103 0.5414
vn 0.2243 0.8103 -0.5414
vn 0.7861 -0.5253 0.3256
vn 0.5414 0.8103 -0.2243
vn 0.0980 0.9944 -0.0405
vn 0.3256 -0.5253 -0.7862
vn -0.3764 0.1807 -0.9087
vn -0.2243 0.8103 -0.5414
vn 0.2882 -0.9501 -0.1194
vn -0.5414 0.8103 0.2243
vn 0.9087 0.1807 0.3764
vn 0.5414 0.8103 0.2243
vn 0.2882 -0.9501 0.1194
vn 0.0980 0.9944 0.0406
vn -0.5414 0.8103 -0.2243
vn 0.3764 0.1807 0.9087
vn 0.3256 -0.5253 0.7862
vn 0.1194 -0.9501 0.2882
vn 0.0406 0.9944 0.0979
vn -0.3764 0.1807 0.9087
vn -0.3256 -0.5253 0.7862
vn -0.1194 -0.9501 0.2882
vn -0.0406 0.9944 0.0979
vn -0.7862 -0.5253 0.3256
vn -0.9087 0.1807 0.3764
vn -0.2882 -0.9501 0.1194
vn -0.0980 0.9944 0.0405
vn -0.9087 0.1807 -0.3764
vn -0.7862 -0.5253 -0.3256
vn -0.2882 -0.9501 -0.1194
vn -0.0980 0.9944 -0.0406
vn -0.1194 -0.9501 -0.2882
vn -0.0406 0.9944 -0.0979
vn -0.2243 0.8103 0.5414
vn 0.0406 0.9944 -0.0979
vn 0.9087 0.1807 -0.3764
vn 0.7862 -0.5253 -0.3256
vn -0.3256 -0.5253 -0.7861
vn 0.1194 -0.9501 -0.2882
usemtl None
s off
f 6/1/1 33/2/1 2/3/1 5/4/1
f 17/5/2 13/6/2 12/7/2 16/8/2
f 5/4/3 2/3/3 1/9/3 4/10/3
f 15/11/4 11/12/4 10/13/4 14/14/4
f 9/15/5 5/4/5 4/10/5 8/16/5
f 4/10/6 24/17/6 8/16/6
f 7/18/7 3/19/7 33/2/7 6/1/7
f 30/20/8 2/3/8 33/2/8 31/21/8
f 29/22/9 1/9/9 2/3/9 30/20/9
f 7/18/10 11/12/10 34/23/10
f 26/24/11 21/25/11 20/26/11 25/27/11
f 14/14/12 10/13/12 9/15/12 13/6/12
f 13/6/13 9/15/13 8/16/13 12/7/13
f 11/12/14 15/11/14 34/28/14
f 8/16/15 24/29/15 12/7/15
f 30/20/16 26/30/16 25/27/16 29/22/16
f 18/31/17 14/14/17 13/6/17 17/5/17
f 19/32/18 15/11/18 14/14/18 18/31/18
f 15/11/19 19/32/19 34/33/19
f 12/7/20 24/34/20 16/8/20
f 22/35/21 18/31/21 17/5/21 21/25/21
f 23/36/22 19/32/22 18/31/22 22/35/22
f 19/32/23 23/36/23 34/37/23
f 16/8/24 24/38/24 20/26/24
f 28/39/25 23/36/25 22/35/25 27/40/25
f 27/40/26 22/35/26 21/25/26 26/24/26
f 23/36/27 28/39/27 34/41/27
f 20/26/28 24/42/28 25/27/28
f 31/21/29 27/43/29 26/30/29 30/20/29
f 32/44/30 28/45/30 27/43/30 31/21/30
f 28/39/31 32/44/31 34/46/31
f 25/27/32 24/47/32 29/22/32
f 32/44/33 3/19/33 34/48/33
f 29/22/34 24/49/34 1/9/34
f 21/25/35 17/5/35 16/8/35 20/26/35
f 1/9/36 24/50/36 4/10/36
f 10/13/37 6/1/37 5/4/37 9/15/37
f 11/12/38 7/18/38 6/1/38 10/13/38
f 31/21/39 33/2/39 3/19/39 32/44/39
f 3/19/40 7/18/40 34/51/40
