# Blender v3.0.0 OBJ File: 'squidfinal.blend'
# www.blender.org
mtllib gun.mtl
o Cube.003
v 3.762513 4.577723 -0.517437
v 3.810663 4.697945 -0.468587
v 3.802547 4.565847 -0.419930
v 3.728416 4.582353 -0.387483
v 3.739112 4.713685 -0.429855
v 3.688382 4.594229 -0.484990
v 2.416939 4.760958 0.057342
v 2.436478 4.844486 0.059493
v 2.558043 4.817419 0.006285
v 2.297661 4.801555 0.082178
v 2.357093 4.783846 0.227303
v 3.131094 4.611509 -0.111474
v 2.202403 4.601197 0.100721
v 2.218911 4.766221 0.048287
v 2.483062 4.668792 -0.072034
v 3.131421 4.516796 -0.059354
v 2.586241 4.638184 0.179269
v 2.018222 4.160383 0.290499
v 2.253176 3.971453 0.171022
v 2.272709 4.066564 0.174586
v 2.303314 4.042277 0.159062
v 2.533104 4.390508 0.050076
v 2.550914 4.334713 0.026721
v 2.597380 4.377588 0.027559
v 2.528944 4.260778 0.023057
v 2.538962 4.230422 0.000593
v 2.518586 4.263852 -0.002171
v 2.490604 4.261010 0.008972
v 2.524083 4.220409 0.005229
v 2.500962 4.257937 0.034200
v 1.813640 4.682051 0.419404
v 1.759709 4.685825 0.298276
v 1.771058 4.711138 0.311328
v 1.336379 4.340858 0.596292
v 1.436172 4.318920 0.541331
v 1.592246 4.591613 0.510464
v 1.365520 4.748511 0.455443
v 1.433294 4.754221 0.607446
v 3.958021 4.315195 -0.623268
v 3.972539 4.377257 -0.621670
v 3.839870 4.372833 -0.516458
v 4.008122 4.366701 -0.535004
v 3.993604 4.304639 -0.536602
v 3.968848 4.280146 -0.580702
v 3.997295 4.401751 -0.577571
v 3.133913 4.601339 -0.088643
v 3.087806 4.404243 -0.093718
v 3.667376 4.341798 -0.339282
v 3.703344 4.474552 -0.337880
v 3.011386 4.426914 -0.279848
v 3.057492 4.624010 -0.274773
v 3.590956 4.364469 -0.525412
v 3.626924 4.497222 -0.524010
v 3.716618 4.468614 -0.396492
v 3.676584 4.480490 -0.493999
v 3.696124 4.564018 -0.491848
v 3.736158 4.552142 -0.394341
v 2.598077 4.805543 0.103791
v 2.456973 4.749082 0.154849
v 4.004498 4.432540 -0.576778
v 3.891112 4.457787 -0.527149
v 3.907423 4.404989 -0.463028
v 4.020808 4.379743 -0.512656
v 3.617723 4.390802 -0.375510
v 3.772323 4.356379 -0.443178
v 3.785785 4.413927 -0.441696
v 3.631185 4.448350 -0.374028
v 3.584728 4.400590 -0.455872
v 3.594767 4.368090 -0.416402
v 3.621145 4.480850 -0.413498
v 3.598190 4.458138 -0.454390
v 3.739328 4.366167 -0.523540
v 3.752790 4.423715 -0.522058
v 3.749368 4.333667 -0.484070
v 3.775746 4.446427 -0.481166
v 3.945336 4.302153 -0.645617
v 3.961646 4.249355 -0.581495
v 3.848260 4.274601 -0.531867
v 3.831950 4.327399 -0.595989
v 3.885552 4.311498 -0.465435
v 3.998938 4.286252 -0.515063
v 3.853820 4.420890 -0.593581
v 3.967206 4.395644 -0.643209
v 3.629045 4.340572 -0.491522
v 3.669079 4.328696 -0.394016
v 3.743209 4.312190 -0.426462
v 3.703176 4.324066 -0.523969
v 2.476512 4.832610 0.157000
v 2.594433 4.953362 0.043126
v 2.582212 4.956987 0.013361
v 2.518703 4.971128 0.041158
v 2.530924 4.967503 0.070923
v 2.558738 4.959252 0.138665
v 2.622246 4.945112 0.110867
v 2.577796 4.810963 0.077554
v 2.465450 4.840226 0.127852
v 2.546517 4.962877 0.108900
v 2.610025 4.948737 0.081102
v 2.562203 4.815588 0.039578
v 2.449437 4.844976 0.088849
v 3.028242 4.547404 -0.310657
v 3.072178 4.628987 -0.254969
v 2.322090 4.735613 0.299590
v 2.319321 4.495770 0.207724
v 2.260405 4.513247 0.064229
v 1.959796 4.175779 0.146549
v 2.443156 4.397030 -0.024959
v 2.502072 4.379553 0.118536
v 2.543430 4.556351 0.123089
v 2.259823 4.570606 0.241268
v 3.043569 4.444992 -0.095820
v 3.026984 4.262678 -0.111215
v 2.968068 4.280156 -0.254711
v 2.984653 4.462469 -0.239315
v 3.007374 4.373222 -0.116175
v 2.966829 4.385250 -0.214927
v 2.783928 4.393086 -0.138878
v 2.824473 4.381058 -0.040126
v 2.917314 3.645868 -0.284652
v 3.070702 3.761539 -0.333541
v 3.111247 3.749511 -0.234789
v 2.957859 3.633841 -0.185900
v 3.025328 3.978087 -0.171673
v 2.847603 3.931580 -0.104367
v 2.807058 3.943608 -0.203120
v 2.984782 3.990115 -0.270425
v 2.956625 4.212770 -0.231745
v 2.997170 4.200742 -0.132993
v 2.777174 4.184377 -0.161525
v 2.817720 4.172349 -0.062773
v 2.213793 4.084041 0.031090
v 2.194260 3.988930 0.027526
v 2.244398 4.059754 0.015567
v 2.411183 4.295299 0.103906
v 2.381192 4.304196 0.030860
v 2.331054 4.233372 0.042819
v 2.361045 4.224475 0.115866
v 2.600265 4.200106 -0.055556
v 2.617840 4.149997 -0.068875
v 2.419458 4.171430 0.015186
v 2.440925 4.221719 0.012498
v 2.438202 4.165869 0.060840
v 2.459670 4.216158 0.058151
v 2.679190 4.353069 -0.072902
v 2.619009 4.194545 -0.009903
v 2.699542 4.353782 -0.019301
v 2.636584 4.144437 -0.023221
v 2.758144 4.341036 -0.045802
v 2.736560 4.350235 -0.096845
v 2.574274 4.384443 -0.028720
v 2.512649 4.394651 0.003535
v 2.538002 4.338544 -0.004725
v 2.328974 4.717248 0.208792
v 2.299229 4.590312 0.205406
v 2.255636 4.603243 0.099230
v 2.285285 4.730208 0.102383
v 1.844396 4.825143 0.420889
v 1.800708 4.838103 0.314481
v 1.382427 4.334863 0.410432
v 1.538502 4.607556 0.379565
v 1.866629 4.861364 0.453258
v 1.797207 4.881958 0.284174
v 1.498833 4.927898 0.668832
v 1.390233 4.960114 0.404325
v 1.274569 4.359184 0.445764
vt 0.625000 0.000000
vt 0.625000 0.086697
vt 0.625000 0.250000
vt 0.625000 0.250000
vt 0.625000 0.163303
vt 0.625000 0.000000
vt 0.537001 0.750000
vt 0.625000 0.750000
vt 0.625879 0.750879
vt 0.625000 0.750000
vt 0.625000 0.500000
vt 0.625000 0.500000
vt 0.500000 0.750000
vt 0.562500 0.750000
vt 0.562500 0.750000
vt 0.562500 0.500000
vt 0.562500 0.500000
vt 0.452519 0.500000
vt 0.375000 0.500000
vt 0.375000 0.500000
vt 0.375000 0.500000
vt 0.375000 0.500000
vt 0.375000 0.500000
vt 0.375000 0.500000
vt 0.375000 0.500000
vt 0.375000 0.621245
vt 0.375000 0.750000
vt 0.375000 0.750000
vt 0.375000 0.624723
vt 0.375000 0.500000
vt 0.500000 0.500000
vt 0.500000 0.750000
vt 0.500000 0.750000
vt 0.500000 0.500000
vt 0.500000 0.500000
vt 0.500000 0.500000
vt 0.500000 0.750000
vt 0.500000 0.500000
vt 0.625000 1.000000
vt 0.625000 1.000000
vt 0.625000 1.000000
vt 0.625000 0.250000
vt 0.625000 0.250000
vt 0.625000 0.250000
vt 0.117369 0.500000
vt 0.117369 0.625000
vt 0.117369 0.500000
vt 0.875000 0.625000
vt 0.875000 0.500000
vt 0.875000 0.625000
vt 0.117369 0.750000
vt 0.117369 0.625000
vt 0.875000 0.750000
vt 0.875000 0.750000
vt 0.625000 0.500000
vt 0.375000 0.500000
vt 0.375000 0.250000
vt 0.625000 0.250000
vt 0.375000 0.750000
vt 0.625000 0.750000
vt 0.375000 1.000000
vt 0.625000 1.000000
vt 0.125000 0.750000
vt 0.125000 0.500000
vt 0.875000 0.500000
vt 0.875000 0.750000
vt 0.625000 0.250000
vt 0.625000 0.000000
vt 0.625000 0.000000
vt 0.625000 0.250000
vt 0.625879 0.499121
vt 0.537001 0.500000
vt 0.625000 1.000000
vt 0.625000 1.000000
vt 0.117369 0.750000
vt 0.117369 0.500000
vt 0.875000 0.500000
vt 0.875000 0.750000
vt 0.875000 0.625000
vt 0.875000 0.625000
vt 0.875000 0.500000
vt 0.875000 0.500000
vt 0.537001 0.500000
vt 0.625000 0.250000
vt 0.625000 0.250000
vt 0.625000 0.500000
vt 0.537001 0.750000
vt 0.537001 0.625000
vt 0.625000 0.625000
vt 0.625000 0.750000
vt 0.625000 1.000000
vt 0.625000 1.000000
vt 0.117369 0.750000
vt 0.117369 0.625000
vt 0.875000 0.625000
vt 0.875000 0.750000
vt 0.117369 0.750000
vt 0.117369 0.625000
vt 0.117369 0.625000
vt 0.117369 0.750000
vt 0.625000 0.250000
vt 0.625000 0.250000
vt 0.625000 0.250000
vt 0.625000 0.250000
vt 0.625000 1.000000
vt 0.625000 1.000000
vt 0.625000 1.000000
vt 0.625000 1.000000
vt 0.875000 0.500000
vt 0.625000 0.000000
vt 0.625000 0.250000
vt 0.625000 0.250000
vt 0.625000 0.000000
vt 0.625000 0.500000
vt 0.625000 0.750000
vt 0.625000 0.750000
vt 0.625000 0.750000
vt 0.625000 0.750000
vt 0.625000 0.500000
vt 0.625000 0.500000
vt 0.625000 0.500000
vt 0.625000 0.500000
vt 0.625000 0.500000
vt 0.625000 0.500000
vt 0.625000 0.750000
vt 0.625000 0.750000
vt 0.562500 0.750000
vt 0.625000 0.750000
vt 0.562500 0.500000
vt 0.452519 0.500000
vt 0.452519 0.750000
vt 0.452519 0.750000
vt 0.375000 0.750000
vt 0.375000 0.500000
vt 0.500000 0.500000
vt 0.500000 0.500000
vt 0.500000 0.500000
vt 0.375000 0.500000
vt 0.375000 0.750000
vt 0.500000 0.750000
vt 0.375000 0.500000
vt 0.375000 0.750000
vt 0.375000 0.750000
vt 0.375000 0.500000
vt 0.375000 0.750000
vt 0.375000 0.750000
vt 0.375000 0.500000
vt 0.375000 0.500000
vt 0.375000 0.500000
vt 0.375000 0.500000
vt 0.375000 0.750000
vt 0.375000 0.750000
vt 0.375000 0.750000
vt 0.375000 0.500000
vt 0.375000 0.750000
vt 0.375000 0.500000
vt 0.375000 0.750000
vt 0.375000 0.750000
vt 0.375000 0.750000
vt 0.375000 0.500000
vt 0.375000 0.750000
vt 0.375000 0.750000
vt 0.375000 0.500000
vt 0.375000 0.750000
vt 0.375000 0.750000
vt 0.375000 0.750000
vt 0.375000 0.750000
vt 0.375000 0.500000
vt 0.375000 0.500000
vt 0.375000 0.750000
vt 0.375000 0.500000
vt 0.375000 0.500000
vt 0.375000 0.500000
vt 0.375000 0.500000
vt 0.375000 0.750000
vt 0.375000 0.750000
vt 0.375000 0.750000
vt 0.375000 0.750000
vt 0.562500 0.500000
vt 0.500000 0.500000
vt 0.500000 0.750000
vt 0.562500 0.750000
vt 0.562500 0.500000
vt 0.562500 0.750000
vt 0.375000 0.000000
vt 0.625000 0.000000
vt 0.500000 0.750000
vt 0.500000 0.750000
vt 0.562500 0.500000
vt 0.562500 0.750000
vt 0.562500 0.500000
vt 0.562500 0.750000
vt 0.500000 0.750000
vt 0.875000 0.750000
vt 0.117369 0.500000
vt 0.117369 0.500000
vt 0.117369 0.500000
vt 0.875000 0.750000
vn 0.8976 -0.1999 -0.3929
vn -0.8976 0.1999 0.3929
vn -0.3774 0.1120 -0.9192
vn -0.3774 0.1120 -0.9193
vn 0.2279 0.9734 0.0254
vn 0.2279 0.9734 0.0255
vn -0.4712 -0.2239 -0.8531
vn 0.4406 0.4340 0.7858
vn 0.3774 -0.1120 0.9192
vn 0.2609 -0.3007 0.9173
vn 0.8295 0.4823 -0.2818
vn -0.7410 -0.6319 0.2273
vn 0.8942 -0.1925 -0.4041
vn 0.8972 -0.1989 -0.3943
vn 0.8945 -0.1931 -0.4033
vn 0.4495 -0.1578 0.8792
vn -0.8976 0.1998 0.3928
vn -0.8977 0.1998 0.3928
vn 0.4208 -0.1246 0.8985
vn 0.4218 -0.1234 0.8982
vn 0.4206 -0.1248 0.8986
vn 0.6163 -0.1640 0.7702
vn -0.1076 0.0507 -0.9929
vn 0.2664 0.7714 -0.5780
vn -0.0965 -0.7803 -0.6179
vn 0.6568 0.6556 0.3727
vn 0.2938 -0.8961 0.3328
vn -0.1342 -0.9888 -0.0653
vn 0.2277 0.9734 0.0251
vn -0.2277 -0.9734 -0.0251
vn 0.3964 0.7557 0.5214
vn -0.3965 -0.7557 -0.5214
vn -0.0144 0.8775 -0.4793
vn -0.3964 -0.7557 -0.5214
vn -0.5681 0.1537 -0.8085
vn 0.1678 -0.0646 0.9837
vn -0.6054 -0.6831 -0.4085
vn 0.1630 0.7816 0.6021
vn -0.2968 0.4805 -0.8252
vn 0.4696 0.2582 0.8443
vn -0.8976 0.1998 0.3929
vn -0.3803 0.1111 -0.9182
vn 0.3745 -0.1128 0.9203
vn 0.2277 0.9734 0.0250
vn 0.2571 0.9663 0.0121
vn -0.8976 0.2001 0.3929
vn 0.8440 -0.1519 -0.5144
vn 0.9476 -0.1827 -0.2620
vn -0.7580 0.5492 0.3519
vn -0.7398 0.5438 0.3961
vn 0.8944 -0.2133 -0.3932
vn -0.4958 0.8140 0.3026
vn -0.6562 0.6713 0.3446
vn -0.3562 0.1479 -0.9226
vn 0.4563 0.4683 0.7566
vn -0.7511 -0.6287 0.2012
vn 0.9216 -0.0514 -0.3847
vn 0.2600 -0.4952 0.8290
vn -0.0378 0.7344 -0.6777
vn -0.8937 0.2062 0.3985
vn 0.6755 -0.6457 -0.3560
vn 0.0793 0.9929 0.0884
vn 0.5088 -0.8044 -0.3069
vn -0.8628 -0.4031 0.3051
vn 0.8611 0.4076 -0.3039
vn 0.9242 -0.0175 -0.3816
vn -0.9255 -0.0111 0.3786
vn 0.9177 0.1778 -0.3552
vn -0.9180 -0.1754 0.3556
vn 0.1935 -0.6221 0.7587
vn -0.1949 0.6176 -0.7620
vn -0.4311 -0.3875 -0.8148
vn 0.2278 0.9734 0.0250
vn -0.3777 0.1162 -0.9186
vn 0.7178 -0.5917 -0.3668
vn -0.5737 -0.8067 0.1419
vn 0.7280 -0.5777 -0.3692
vn 0.5724 0.8085 -0.1365
vn -0.7280 0.5777 0.3692
vn -0.5437 -0.8304 0.1221
vn -0.2621 0.0383 -0.9643
vn 0.7605 0.6039 -0.2387
vn 0.4850 -0.1833 0.8551
vn -0.8231 0.4501 0.3462
vn 0.1574 0.9860 0.0555
vn -0.1345 -0.9888 -0.0652
vn 0.3733 -0.1295 0.9186
vn 0.7622 -0.5120 -0.3960
vn -0.3864 0.0985 -0.9171
vn 0.1429 0.9895 0.0230
vn 0.1908 0.9813 0.0241
vn 0.4344 -0.1970 0.8789
vn 0.6396 -0.6864 -0.3462
vn -0.4730 -0.0846 -0.8770
vn -0.2865 -0.1960 -0.9378
vn -0.8997 0.1673 0.4031
vn -0.3179 0.0269 -0.9477
vn 0.8863 -0.2439 -0.3936
vn 0.4207 -0.4084 0.8101
vn 0.8884 -0.2365 -0.3935
vn -0.3776 0.1110 -0.9193
vn -0.2397 -0.9664 -0.0931
vn 0.3823 -0.1022 0.9184
vn 0.7830 -0.4913 -0.3813
vn 0.8951 -0.1882 -0.4042
vn 0.3905 -0.3598 0.8474
vn 0.1991 0.9793 0.0375
vn -0.3408 -0.0976 -0.9351
vn -0.2277 -0.9734 -0.0250
vn -0.3207 0.0895 -0.9429
vn 0.2825 -0.9394 -0.1942
vn 0.4220 -0.1232 0.8982
vn -0.3620 0.0567 -0.9305
vn -0.2352 0.8997 -0.3677
vn -0.2072 -0.8012 0.5613
vn 0.0144 -0.8775 0.4793
vn 0.3965 0.7556 0.5214
vn 0.8976 -0.1998 -0.3929
usemtl mask
s 1
f 1/1/1 2/2/1 3/3/1
f 4/4/2 5/5/2 6/6/2
f 7/7/3 8/8/4 9/9/3
f 10/10/5 11/11/6 12/12/5
f 13/13/7 14/14/7 15/15/7
f 16/16/8 12/12/8 17/17/8
f 18/18/9 19/19/9 20/20/9
f 19/19/9 21/21/9 20/20/9
f 22/22/10 23/23/10 24/24/10
f 25/25/11 26/26/11 27/27/11
f 28/28/12 29/29/12 30/30/12
f 31/31/13 32/32/14 33/33/15
f 34/34/16 35/35/16 36/36/16
f 37/37/17 34/34/2 38/38/18
f 38/38/19 36/36/20 31/31/21
f 39/39/22 40/40/22 41/41/22
f 42/42/23 43/43/23 41/44/23
f 43/45/24 44/46/24 41/47/24
f 45/48/25 42/49/25 41/50/25
f 44/46/26 39/51/26 41/52/26
f 40/53/27 45/48/27 41/54/27
f 46/55/9 47/56/9 48/57/9 49/58/9
f 50/59/2 47/56/2 46/55/2 51/60/2
f 52/61/3 50/59/3 51/60/3 53/62/3
f 52/63/28 48/64/28 47/56/28 50/59/28
f 51/60/29 46/55/29 49/65/29 53/66/29
f 54/67/1 55/68/1 56/69/1 57/70/1
f 58/71/9 59/72/9 54/67/9 57/70/9
f 55/73/3 7/7/3 9/9/3 56/74/3
f 7/7/30 55/75/30 54/76/30 59/72/30
f 9/9/29 58/71/29 57/77/29 56/78/29
f 60/79/31 61/80/31 62/81/31 63/82/31
f 64/83/9 65/84/9 66/85/9 67/86/9
f 68/87/2 69/88/2 70/89/2 71/90/2
f 72/91/3 68/87/3 71/90/3 73/92/3
f 72/93/32 74/94/32 69/88/32 68/87/32
f 71/90/33 70/89/33 75/95/33 73/96/33
f 45/48/1 60/79/1 63/82/1 42/49/1
f 76/97/34 77/98/34 78/99/34 79/100/34
f 63/101/9 62/102/9 80/103/9 81/104/9
f 76/105/3 79/106/3 82/107/3 83/108/3
f 79/106/35 72/91/35 73/92/35 82/107/35
f 62/102/36 66/85/36 65/84/36 80/103/36
f 79/100/37 78/99/37 74/94/37 72/93/37
f 62/81/38 61/80/38 75/95/38 66/109/38
f 6/6/2 84/110/2 85/111/2 4/4/2
f 86/112/1 87/113/1 1/1/1 3/3/1
f 86/112/30 85/111/30 84/110/30 87/113/30
f 3/3/9 4/4/9 85/111/9 86/112/9
f 87/113/3 84/110/3 6/6/3 1/1/3
f 2/2/39 1/1/39 6/6/39 5/5/39
f 5/5/40 4/4/40 3/3/40 2/2/40
f 7/7/41 59/72/41 88/114/2 8/8/2
f 89/115/29 90/116/29 91/117/29 92/118/29
f 59/72/9 58/71/9 88/114/9
f 93/119/9 88/114/9 58/71/9 94/120/9
f 91/117/4 90/116/4 9/9/3 8/8/4
f 95/121/42 96/122/42 97/123/42 98/124/42
f 99/125/43 89/115/43 92/118/43 100/126/43
f 97/123/44 93/119/44 94/120/44 98/124/44
f 100/126/45 96/122/45 95/121/45 99/125/45
f 96/122/46 100/126/46 8/8/2 88/114/2
f 58/71/29 9/9/29 99/125/29 95/121/29
f 95/121/47 98/124/47 94/120/47 58/71/47
f 90/116/48 89/115/48 99/125/48 9/9/48
f 91/117/49 8/8/49 100/126/49 92/118/49
f 96/122/50 88/114/50 93/119/50 97/123/50
f 12/12/51 16/16/51 101/127/51 102/128/51
f 10/10/52 14/14/52 103/129/52 11/11/52
f 18/18/53 104/130/53 105/131/53 106/132/53
f 13/13/54 107/133/54 105/131/54
f 11/11/55 103/129/55 17/17/55 12/12/55
f 104/130/9 108/134/9 109/135/9 110/136/9
f 105/131/56 104/130/56 110/136/56 13/13/56
f 111/137/57 112/138/57 113/139/57 114/140/57
f 103/129/58 110/136/58 109/135/58 17/17/58
f 15/15/59 14/14/59 10/10/59
f 13/13/60 110/136/60 103/129/60 14/14/60
f 16/16/61 111/137/61 114/140/61 101/127/61
f 115/141/62 116/142/62 117/143/62 118/144/62
f 119/145/63 120/146/63 121/147/63 122/148/63
f 121/147/9 123/149/9 124/150/9 122/148/9
f 122/148/64 124/150/64 125/151/64 119/145/64
f 120/146/3 119/145/3 125/151/3 126/152/3
f 120/146/65 126/152/65 123/149/65 121/147/65
f 127/153/66 116/142/66 115/141/66 128/154/66
f 127/153/3 129/155/3 117/143/3 116/142/3
f 130/156/67 118/144/67 117/143/67 129/155/67
f 128/154/9 115/141/9 118/144/9 130/156/9
f 126/152/68 127/153/68 128/154/68 123/149/68
f 126/152/3 125/151/3 129/155/3 127/153/3
f 124/150/69 130/156/69 129/155/69 125/151/69
f 123/149/9 128/154/9 130/156/9 124/150/9
f 17/17/70 109/135/70 111/137/70 16/16/70
f 10/10/71 102/128/71 101/127/71 15/15/71
f 15/15/72 101/127/72 114/140/72 13/13/72
f 108/134/9 112/138/9 111/137/9 109/135/9
f 107/133/30 113/139/30 112/138/30 108/134/30
f 102/128/73 10/10/5 12/12/5
f 107/133/74 13/13/74 114/140/74 113/139/74
f 20/20/9 108/134/9 104/130/9 18/18/9
f 106/132/3 131/157/3 132/158/3
f 131/157/3 106/132/3 105/131/3 107/133/3
f 131/157/75 107/133/75 108/134/75 20/20/75
f 106/132/76 132/158/76 19/19/76 18/18/76
f 132/158/77 133/159/77 21/21/77 19/19/77
f 132/158/3 131/157/3 133/159/4
f 133/159/78 131/157/78 20/20/78 21/21/78
f 134/160/79 135/161/79 136/162/79 137/163/79
f 138/164/3 139/165/3 140/166/3 141/167/3
f 142/168/80 137/163/80 136/162/80 140/166/80
f 141/167/81 140/166/81 136/162/81 135/161/81
f 141/167/82 135/161/82 134/160/82 143/169/82
f 143/169/83 134/160/83 137/163/83 142/168/83
f 144/170/84 138/164/84 145/171/84 146/172/84
f 138/164/85 141/167/85 143/169/85 145/171/85
f 145/171/9 143/169/9 142/168/9 147/173/9
f 147/173/86 142/168/86 140/166/86 139/165/86
f 148/174/87 146/172/87 145/171/87 147/173/87
f 148/174/88 147/173/88 139/165/88 149/175/88
f 149/175/89 139/165/89 138/164/89 144/170/89
f 149/175/90 144/170/90 146/172/90 148/174/90
f 22/22/91 24/24/91 150/176/91 151/177/91
f 25/25/92 23/23/92 22/22/92 30/30/92
f 152/178/93 150/176/93 24/24/93 23/23/93
f 151/177/94 150/176/94 152/178/94
f 29/29/95 28/28/95 27/27/95 26/26/95
f 30/30/96 22/22/96 151/177/96 28/28/96
f 27/27/97 28/28/97 151/177/97 152/178/97
f 27/27/98 152/178/98 23/23/98 25/25/98
f 29/29/99 26/26/99 25/25/99 30/30/99
f 153/179/1 154/180/1 155/181/1 156/182/1
f 157/183/29 153/179/29 156/182/29 158/184/29
f 48/57/100 52/185/100 53/186/100 49/58/100
f 158/184/101 156/182/101 155/181/101 33/33/101
f 33/33/102 155/181/102 154/180/102 31/31/102
f 31/31/103 154/180/103 153/179/103 157/183/103
f 159/187/104 160/188/104 36/36/104 35/35/104
f 161/189/1 157/183/1 158/184/1 162/190/1
f 31/31/105 157/183/105 161/189/105
f 162/190/1 158/184/1 33/33/15 32/32/14
f 37/37/17 38/38/18 163/191/17 164/192/17
f 38/38/106 31/31/106 161/189/106 163/191/106
f 163/191/107 161/189/107 162/190/107 164/192/107
f 37/37/108 164/192/108 162/190/108 32/32/108
f 34/34/109 165/193/109 159/187/109 35/35/109
f 159/187/110 165/193/110 37/37/110 160/188/110
f 160/188/111 32/32/111 31/31/111 36/36/111
f 37/37/17 165/193/2 34/34/2
f 38/38/19 34/34/112 36/36/20
f 37/37/113 32/32/113 160/188/113
f 82/194/114 73/96/114 75/95/114 61/80/114
f 80/195/115 65/196/115 74/94/115 78/99/115
f 81/197/116 80/195/116 78/99/116 77/98/116
f 45/48/1 40/53/1 83/198/1 60/79/1
f 70/89/117 67/86/117 66/109/117 75/95/117
f 74/94/116 65/196/116 64/83/116 69/88/116
f 70/89/2 69/88/2 64/83/2 67/86/2
f 83/198/33 82/194/33 61/80/33 60/79/33
f 44/46/118 77/98/118 76/97/118 39/51/118
f 43/43/1 42/42/1 63/101/1 81/104/1
f 44/46/118 43/45/1 81/197/1 77/98/118
f 39/39/118 76/105/118 83/108/1 40/40/1
