# Blender v3.0.0 OBJ File: 'mydoll.blend'
# www.blender.org
mtllib triangle.mtl
o 立方体.007_立方体.008
v -1.700000 -0.981496 0.340000
v -1.000000 -0.577350 0.340000
v 0.000000 1.962991 0.340000
v 0.000000 1.154701 0.340000
v -1.700000 -0.981496 -0.340000
v -1.000000 -0.577350 -0.340000
v 0.000000 1.962991 -0.340000
v 0.000000 1.154701 -0.340000
v 1.700000 -0.981496 0.340000
v 1.000000 -0.577350 0.340000
v 1.700000 -0.981496 -0.340000
v 1.000000 -0.577350 -0.340000
vt 0.625000 0.000000
vt 0.375000 0.250000
vt 0.375000 0.000000
vt 0.556372 0.375000
vt 0.409314 0.291778
vt 0.409314 0.458222
vt 0.625000 0.250000
vt 0.375000 0.500000
vt 0.625000 0.500000
vt 0.375000 0.750000
vt 0.556372 0.875000
vt 0.409314 0.791778
vt 0.375000 1.000000
vt 0.409314 0.958222
vt 0.125000 0.750000
vt 0.125000 0.500000
vt 0.375000 0.000000
vt 0.625000 0.250000
vt 0.625000 0.000000
vt 0.625000 0.500000
vt 0.375000 0.750000
vt 0.625000 0.750000
vt 0.125000 0.750000
vt 0.375000 0.500000
vt 0.125000 0.500000
vt 0.625000 0.750000
vt 0.375000 0.250000
vn -0.8660 0.5000 0.0000
vn 0.0000 0.0000 -1.0000
vn 0.8660 0.5000 0.0000
vn 0.0000 0.0000 1.0000
vn 0.0000 -1.0000 0.0000
vn 0.8660 -0.5000 0.0000
vn -0.8660 -0.5000 0.0000
vn 0.0000 1.0000 0.0000
usemtl None
s off
f 3/1/1 5/2/1 1/3/1
f 5/2/2 8/4/2 6/5/2
f 12/6/2 7/7/2 11/8/2
f 7/9/3 9/10/3 11/8/3
f 9/10/4 4/11/4 10/12/4
f 1/13/4 10/12/4 2/14/4
f 11/8/5 1/15/5 5/16/5
f 2/17/6 8/18/6 4/19/6
f 8/20/7 10/21/7 4/22/7
f 2/23/8 12/24/8 6/25/8
f 3/1/1 7/7/1 5/2/1
f 12/6/2 11/8/2 5/2/2
f 5/2/2 7/7/2 8/4/2
f 6/5/2 12/6/2 5/2/2
f 12/6/2 8/4/2 7/7/2
f 7/9/3 3/26/3 9/10/3
f 9/10/4 3/26/4 4/11/4
f 1/13/4 9/10/4 10/12/4
f 2/14/4 4/11/4 1/13/4
f 4/11/4 3/26/4 1/13/4
f 11/8/5 9/10/5 1/15/5
f 2/17/6 6/27/6 8/18/6
f 8/20/7 12/24/7 10/21/7
f 2/23/8 10/21/8 12/24/8
